<?xml version="1.0" standalone="no"?>
<!DOCTYPE svg PUBLIC "-//W3C//DTD SVG 20010904//EN"
 "http://www.w3.org/TR/2001/REC-SVG-20010904/DTD/svg10.dtd">
<svg version="1.0" xmlns="http://www.w3.org/2000/svg"
 width="1000.000000pt" height="1000.000000pt" viewBox="0 0 1000.000000 1000.000000"
 preserveAspectRatio="xMidYMid meet">
<metadata>
Created by potrace 1.11, written by Peter Selinger 2001-2013
</metadata>
<g transform="translate(0.000000,1000.000000) scale(0.100000,-0.100000)"
fill="#000000" stroke="none">
<path d="M6488 9855 c-2 -2 -21 -5 -43 -8 -57 -8 -111 -25 -124 -40 -11 -14
-9 -324 14 -2387 9 -824 17 -1620 16 -1651 -1 -13 -10 -16 -45 -14 -24 2 -49
6 -54 9 -6 3 -13 2 -17 -4 -4 -6 -11 -7 -17 -4 -13 8 -78 11 -78 4 0 -3 -26
-6 -58 -7 -119 -3 -182 -8 -182 -13 0 -4 -10 -6 -22 -7 -13 0 -36 -3 -53 -7
-16 -4 -39 -8 -50 -10 -72 -13 -102 -20 -205 -52 -63 -20 -120 -40 -126 -45
-6 -5 -19 -10 -30 -12 -41 -7 -298 -138 -449 -230 -21 -12 -126 -100 -230
-192 -33 -29 -75 -65 -93 -80 -19 -16 -63 -65 -98 -109 -36 -45 -72 -90 -82
-101 -13 -16 -137 -83 -162 -87 -3 -1 -34 -16 -70 -33 -79 -39 -206 -100 -240
-115 -14 -5 -38 -19 -55 -29 -16 -10 -110 -66 -208 -125 -140 -83 -407 -271
-437 -306 -3 -3 -21 -17 -40 -30 -19 -13 -39 -30 -43 -37 -4 -7 -14 -13 -22
-13 -7 0 -15 -4 -17 -8 -1 -4 -21 -22 -43 -40 -38 -30 -43 -31 -80 -21 -92 26
-109 12 -54 -41 18 -16 26 -30 19 -30 -7 0 -92 -81 -190 -180 l-177 -179 -69
24 c-77 28 -114 31 -114 12 0 -13 40 -56 89 -97 21 -17 23 -23 13 -43 -16 -31
-34 -58 -53 -79 -9 -11 -25 -34 -35 -53 -10 -19 -22 -35 -26 -35 -5 0 -8 -7
-8 -15 0 -8 -4 -15 -10 -15 -5 0 -10 -6 -10 -13 0 -7 -8 -22 -18 -33 -10 -10
-27 -34 -37 -51 -22 -37 -29 -39 -71 -19 -143 68 -238 96 -247 72 -7 -19 113
-143 192 -198 l23 -16 -36 -53 c-29 -44 -65 -126 -80 -184 -3 -10 -9 -27 -33
-85 -8 -19 -16 -42 -18 -50 -2 -8 -13 -39 -24 -68 -20 -51 -48 -206 -57 -322
-9 -113 -3 -605 7 -605 1 0 3 -9 4 -20 2 -11 6 -36 10 -55 3 -19 9 -51 11 -70
3 -19 7 -48 10 -65 3 -16 7 -43 9 -60 2 -16 6 -43 9 -60 4 -16 9 -46 12 -65
12 -80 19 -107 37 -150 16 -39 28 -74 28 -77 0 -2 7 -20 16 -40 33 -80 36 -89
39 -105 8 -40 47 -106 91 -153 174 -190 256 -275 263 -275 6 0 93 -46 244
-129 150 -83 184 -100 211 -104 17 -3 138 -33 270 -66 243 -62 264 -65 520
-76 55 -2 159 -7 230 -11 167 -9 182 -8 320 9 26 4 105 12 195 22 14 1 52 6
85 10 33 4 74 8 90 10 17 2 57 6 90 10 33 4 71 8 85 10 14 1 79 17 146 34 66
17 132 34 147 36 15 3 38 10 52 15 14 5 25 7 25 4 0 -4 7 -1 15 6 8 7 15 10
15 7 0 -3 42 6 93 20 50 14 99 27 107 28 39 4 187 50 245 75 22 9 78 32 125
49 47 18 99 39 115 47 17 7 73 29 125 49 52 20 104 40 115 45 11 5 49 20 84
34 34 14 98 46 142 71 43 25 80 45 83 45 3 0 31 15 63 34 32 18 87 49 123 68
36 20 90 49 120 65 30 17 79 44 108 62 29 17 55 31 57 31 3 0 13 8 24 17 31
30 65 54 89 66 12 5 22 14 22 18 0 4 15 16 33 27 19 11 42 27 53 35 47 39 156
117 164 117 4 0 10 3 12 8 2 4 29 26 60 49 94 70 489 470 549 556 132 188 199
283 211 297 19 23 60 111 113 245 16 39 33 73 39 77 6 4 8 8 4 8 -4 0 4 24 17
53 13 28 26 68 29 87 3 19 7 46 10 60 2 14 8 48 11 75 11 81 14 98 20 135 11
75 20 134 29 215 4 28 9 66 11 85 3 19 8 55 10 80 2 25 7 57 10 72 3 16 6 46
8 68 1 22 6 40 10 40 4 0 3 8 -2 18 -8 15 -9 119 0 147 3 10 -9 131 -17 175
-3 14 -7 39 -9 55 -4 31 -11 71 -20 115 -3 14 -7 41 -9 60 -3 19 -8 47 -10 61
-3 14 -7 39 -9 55 -3 26 -23 66 -123 237 -19 32 -34 62 -34 67 0 5 -3 10 -7
12 -5 2 -26 26 -48 53 -84 105 -76 96 -195 205 -51 47 -98 90 -104 95 -6 6
-33 22 -61 37 -27 14 -84 45 -125 68 -41 23 -103 55 -137 71 -66 32 -84 52
-174 185 -33 49 -63 80 -113 119 -21 17 -44 35 -50 41 -86 81 -333 231 -411
249 -5 2 -62 20 -125 40 -63 21 -116 37 -117 37 -2 -1 -20 5 -42 13 -22 7 -42
10 -46 7 -4 -4 -4 27 0 68 3 41 8 102 10 135 3 33 7 83 10 110 3 28 7 79 10
115 3 36 8 88 10 115 3 28 7 83 10 124 3 41 8 97 11 125 3 28 7 78 10 111 2
33 6 78 8 100 2 22 7 78 11 125 4 47 8 101 10 120 3 32 11 125 21 240 10 133
14 180 19 225 3 28 8 82 10 120 8 109 14 157 20 163 2 3 0 11 -6 19 -6 7 -7
13 -3 13 5 0 10 15 11 33 0 17 3 61 7 97 3 36 8 92 11 124 3 33 7 61 9 63 5 5
183 -74 196 -87 3 -3 12 -6 20 -8 8 -1 24 -7 35 -12 38 -18 80 -33 88 -32 4 1
7 -3 7 -10 0 -6 3 -9 6 -5 3 3 24 -1 46 -9 22 -8 51 -14 64 -14 13 0 24 -4 24
-8 0 -4 18 -8 41 -7 22 1 42 -2 44 -5 2 -3 28 -3 59 0 30 3 66 5 80 4 14 0 26
3 26 9 0 5 7 7 15 3 8 -3 15 -2 15 2 0 4 8 8 18 9 9 1 35 10 57 19 22 10 44
18 48 18 4 1 12 8 17 16 5 8 10 11 10 6 0 -5 8 -2 18 7 9 8 23 17 31 19 8 2
23 10 33 18 10 8 20 14 23 13 4 -2 44 31 107 90 22 20 45 37 50 37 5 0 7 3 4
8 -2 4 11 25 30 46 19 21 34 42 34 46 0 4 11 20 25 36 14 16 25 32 25 36 0 4
13 29 28 55 35 61 91 190 88 204 0 3 4 12 10 20 18 22 65 178 69 229 3 25 7
82 10 128 3 45 6 87 8 93 7 35 -30 9 -104 -72 -46 -51 -96 -104 -110 -119 -14
-15 -29 -35 -32 -44 -4 -9 -11 -16 -17 -16 -5 0 -10 -6 -10 -13 0 -22 -81 -99
-97 -93 -8 3 -18 6 -23 6 -14 0 -53 72 -57 104 -1 17 -6 47 -9 66 -4 19 -8 45
-9 56 -4 43 -27 150 -41 188 -8 21 -13 41 -10 44 3 2 -1 17 -10 33 -8 16 -13
29 -10 29 18 0 -104 260 -126 268 -4 2 -8 8 -8 14 0 31 -149 166 -224 202 -65
31 -125 56 -134 55 -4 -1 -9 0 -12 1 -6 2 -24 6 -70 15 -19 4 -86 7 -147 7
-86 0 -113 3 -113 13 0 14 -49 40 -95 49 -16 4 -41 9 -55 12 -26 6 -247 14
-252 9z"/>
</g>
</svg>
