<svg id="body_1_" xmlns="http://www.w3.org/2000/svg" viewBox="0 0 1000 1000"><style>.st0{fill:#fff}.st1{fill:#040000}</style><g id="ソール"><ellipse transform="rotate(-41.772 528.825 670.798)" class="st0" cx="528.8" cy="670.8" rx="373.9" ry="237.8"/><path class="st1" d="M691.8 853.3s-1.4 1.3-4.2 3.7c-2.7 2.4-7 6.1-12.5 10.7s-12.5 10.2-20.8 16.6c-8.3 6.3-18.1 13.3-29.3 20.8s-24 15.2-38.2 23.1c-14.2 7.8-30 15.6-47.3 22.9-17.3 7.3-36.2 14-56.6 19.5s-42.3 9.7-65.5 11.5c-11.6.9-23.5 1.2-35.7.6-12.1-.5-24.5-2-36.9-4.4-6.2-1.3-12.4-2.8-18.6-4.6-6.2-1.9-12.3-4-18.4-6.4-6.1-2.5-12.1-5.3-17.9-8.5-5.9-3.2-11.6-6.8-17.1-10.7-5.5-3.9-10.8-8.2-15.9-12.9-5-4.6-9.9-9.7-14.3-15-1.1-1.2-2.2-2.7-3.3-4.1l-1.6-2.1-1.5-2.1c-2.1-2.8-4-5.7-5.9-8.7-3.8-5.9-7.1-12.2-10.1-18.6-6-12.9-10.3-26.6-13.2-40.7-1.5-7.1-2.4-14.2-3.1-21.4-.7-7.2-1-14.5-1-21.8 0-29.2 5.2-58.5 13.9-86.9 8.7-28.5 21-56.1 35.7-82.4 14.9-26.3 32.1-51.5 51.5-75.1 19.3-23.7 40.7-45.7 63.6-66.2 22.8-20.3 47.3-39 73-55.5 25.7-16.5 52.6-30.9 80.5-42.6 27.9-11.7 56.7-20.7 85.9-26.1 29.2-5.4 58.9-7.1 87.8-3.9 7.2.8 14.4 1.9 21.5 3.4s14.1 3.3 20.9 5.5c13.7 4.4 26.8 10.2 38.8 17.7 6 3.7 11.8 7.7 17.3 12.1 5.4 4.4 10.6 9.1 15.4 14.2l1.8 1.9.9.9.4.5c.1.1.4.5.5.6 1.1 1.3 2.2 2.5 3.3 3.8 2.2 2.7 4.4 5.4 6.4 8.2 4 5.5 7.7 11.2 11 17.2 3.3 5.9 6.1 12 8.7 18.1 2.5 6.2 4.6 12.4 6.4 18.7 1.8 6.3 3.2 12.6 4.3 18.9 1.1 6.3 1.9 12.6 2.5 18.9 1 12.6 1.1 25 .2 37.1-.8 12.1-2.4 23.9-4.6 35.3-4.4 22.8-11 44.1-18.7 63.8-7.7 19.6-16.6 37.6-25.7 54-18.4 32.8-38 59.1-55.2 79.8-17.2 20.7-32.2 35.7-42.5 45.7-5.2 5-9.2 8.8-12 11.3-3.2 2.4-4.6 3.7-4.6 3.7zm-9.2-10.3s1.4-1.3 4.1-3.7c2.7-2.4 6.7-6.1 11.8-10.9 10.2-9.7 24.9-24.3 41.8-44.4 16.9-20.1 36.2-45.7 54.3-77.5 9-15.9 17.7-33.3 25.3-52.3 7.6-19 14.2-39.6 18.6-61.5 2.2-11 3.8-22.3 4.7-33.8.9-11.6.9-23.4.1-35.3-.5-6-1.2-12-2.2-18-1-6-2.3-12-3.9-17.9-1.7-5.9-3.6-11.8-5.9-17.6-2.3-5.8-5-11.5-8-17-12-22.2-30.2-41.9-52.9-55.8-11.3-7-23.6-12.6-36.6-16.9-6.5-2.2-13.1-3.9-19.9-5.4-6.7-1.5-13.6-2.6-20.5-3.4-27.8-3.3-56.6-1.6-85 3.5-28.5 5.2-56.7 14-84.1 25.3-27.3 11.5-53.9 25.5-79.1 41.8-25.2 16.2-49.2 34.6-71.7 54.8-44.8 40.2-83.9 87.3-112.7 139.1-14.3 25.9-26.1 53-34.4 80.7-8.3 27.7-13.1 56.1-12.9 84 0 7 .4 13.9 1.1 20.7.7 6.8 1.7 13.6 3.1 20.3 2.8 13.3 6.9 26.2 12.7 38.1 2.8 6 6 11.8 9.6 17.2 1.8 2.7 3.6 5.4 5.6 8l1.4 2 1.5 1.9c1 1.2 1.9 2.5 3.1 3.7 4.2 5 8.7 9.6 13.4 13.9 4.7 4.3 9.6 8.3 14.8 11.8 5.2 3.6 10.5 6.9 16 9.8 5.5 2.9 11.1 5.5 16.8 7.8 5.7 2.3 11.5 4.2 17.3 5.9 5.8 1.7 11.7 3 17.5 4.2 11.7 2.2 23.5 3.5 35 3.9 11.6.5 23 .1 34.1-.8 22.3-1.9 43.4-6 63.1-11.5 19.7-5.4 38-12.1 54.8-19.3 33.6-14.4 61.2-30.7 83.1-45.1 21.9-14.6 38.1-27.4 49-36.4 5.4-4.5 9.5-7.9 12.2-10.4 2.5-2.3 3.9-3.6 3.9-3.5z"/></g><g id="body"><ellipse transform="rotate(-41.219 515.782 651.029)" class="st0" cx="515.8" cy="651" rx="373.6" ry="216.6"/><path class="st1" d="M801.2 401.2s1.2 1.4 3.5 4.1c1.2 1.5 2.7 3.4 4.3 5.6.8 1.1 1.7 2.3 2.6 3.6.9 1.3 1.8 2.8 2.8 4.3 3.8 6.1 8.1 14 11.9 23.7 3.8 9.7 7.1 21.3 9.1 34.6 4.1 26.4 2.7 59.3-6.4 94.9-9 35.6-25.3 74.1-48.6 112.5-5.8 9.6-12.1 19.2-18.8 28.8-6.7 9.6-13.8 19.1-21.4 28.6-15.1 18.9-31.9 37.5-50.2 55.5-18.3 18-38.3 35.3-59.8 51.7-21.4 16.4-44.5 31.7-68.9 45.5-12.2 6.9-24.8 13.5-37.7 19.5-12.9 6-26.2 11.7-39.8 16.6-27.2 9.9-55.8 17.5-85.4 21.3-7.4.9-14.8 1.6-22.3 2-7.5.4-15 .4-22.6.2-15.1-.5-30.3-2.4-45.1-6-14.9-3.7-29.4-9.2-42.9-16.9-13.5-7.7-25.7-17.7-35.9-29.5s-18.2-25.3-23.8-39.7c-5.7-14.4-8.9-29.5-10.4-44.6-1.4-15.1-1.1-30.3.7-45.2.9-7.4 2-14.8 3.5-22.1 1.5-7.3 3.2-14.5 5.2-21.6 7.9-28.5 19.5-55.4 33.2-80.7 13.7-25.3 29.3-49 46.3-71.1 17-22.1 35.3-42.5 54.2-61.4 19-18.9 38.7-36.2 58.8-51.9 40.2-31.4 81.7-56.4 122.3-74.7 40.6-18.4 80.2-30 116.3-34.9 36.1-5 68.6-2.7 94.2 4.5 12.8 3.5 23.9 8.1 33.1 13 9.2 4.9 16.5 10 22.1 14.6 5.6 4.5 9.5 8.5 12.2 11.1 2.3 2.6 3.6 4 3.7 4.1zm-8.7 7.5s-1.2-1.3-3.5-3.8c-2.4-2.4-5.9-6.1-11-10.3-5.1-4.2-11.7-9.1-20.2-13.7-8.4-4.7-18.7-9.1-30.7-12.6-24-7.1-55.2-9.9-90.4-5.7-35.2 4.1-74.4 15-114.5 32.8-40.1 17.9-81.3 42.6-120.7 74-19.7 15.6-39.1 32.9-57.7 51.7-18.6 18.8-36.4 39.2-52.8 61.2-8.2 11-16.1 22.3-23.6 34.1-3.8 5.9-7.3 11.8-10.9 17.9-3.5 6.1-6.9 12.2-10.1 18.5-12.9 25-23.8 51.5-31 79.1-1.8 6.9-3.3 13.9-4.6 20.9-1.3 7-2.3 14.1-3 21.2-1.4 14.2-1.5 28.5 0 42.6 1.6 14.1 4.8 27.9 10.2 40.9 5.3 13 12.7 25 22 35.4 9.3 10.4 20.3 19.1 32.6 25.9 12.2 6.8 25.5 11.6 39.2 14.7 13.7 3.1 27.8 4.7 41.9 4.9 14.1.3 28.3-.8 42.3-2.6 28-3.9 55.4-11.4 81.5-21.3 6.5-2.4 13-5.1 19.4-7.8 6.4-2.7 12.7-5.5 18.9-8.5 12.5-5.9 24.6-12.3 36.4-19.1 11.8-6.8 23.3-13.9 34.4-21.3 11.1-7.5 21.9-15.2 32.3-23.1 20.9-15.9 40.2-32.8 58.2-50.1 18-17.4 34.4-35.3 49.3-53.5 7.4-9.1 14.5-18.2 21.1-27.4 6.6-9.2 12.9-18.4 18.7-27.6 11.6-18.4 21.5-36.8 29.7-54.8s14.6-35.7 19.2-52.6c9.4-33.9 11.2-64.8 7.8-89.5-1.7-12.3-4.6-23.1-7.9-32-3.3-9-7.2-16.2-10.6-21.9-.9-1.4-1.7-2.7-2.5-3.9-.8-1.2-1.6-2.3-2.3-3.4-1.5-2-2.7-3.6-3.7-5-2.3-3-3.5-4.4-3.4-4.3z"/></g><g id="くつひも"><path d="M151.7 620.2s4.4 2.8 11.6 8c3.7 2.6 8 5.8 13 9.5 2.5 1.9 5.1 3.9 7.9 6 2.7 2.1 5.6 4.4 8.6 6.8 3 2.4 6.1 4.9 9.2 7.5 3.2 2.6 6.4 5.3 9.8 8.1 3.3 2.8 6.7 5.7 10.2 8.7 3.4 3 7 6.1 10.5 9.2 14.2 12.6 29.1 26.3 43.6 40.4 7.3 7 14.5 14.2 21.5 21.2 7 7.1 13.9 14.1 20.4 21 3.3 3.4 6.5 6.8 9.6 10.2 3.1 3.4 6.2 6.6 9.1 9.9 5.9 6.5 11.3 12.7 16.3 18.4 5 5.8 9.5 11.1 13.4 15.9 3.9 4.8 7.3 9 10.1 12.6 2.8 3.5 4.9 6.3 6.3 8.3 1.4 1.9 2.2 3 2.2 3 .4.6.3 1.4-.3 1.8-.5.3-1 .3-1.5 0 0 0-1.1-.7-3.1-2-2-1.4-4.9-3.3-8.5-6-3.6-2.6-8-5.8-13-9.5s-10.5-8-16.5-12.8c-6-4.7-12.4-9.9-19.1-15.5-3.4-2.8-6.8-5.7-10.3-8.6-3.5-2.9-7-6-10.6-9.1-7.2-6.2-14.5-12.8-21.9-19.5-7.4-6.7-14.8-13.6-22.1-20.6-14.7-13.9-29-28.2-42.2-41.9-3.3-3.4-6.5-6.8-9.6-10.2-3.1-3.4-6.1-6.6-9.1-9.8-2.9-3.2-5.8-6.4-8.5-9.4-2.7-3.1-5.3-6.1-7.8-8.9-2.5-2.9-4.9-5.7-7.1-8.3-2.2-2.7-4.3-5.2-6.3-7.6-3.9-4.8-7.3-9-10.1-12.6-5.5-7.1-8.4-11.3-8.4-11.3-.6-.9-.4-2.1.5-2.7.7-.6 1.6-.6 2.2-.2zM193.8 578.1s4.4 2.8 11.6 8c3.7 2.6 8 5.8 13 9.5 2.5 1.9 5.1 3.9 7.9 6 2.7 2.1 5.6 4.4 8.6 6.8 3 2.4 6.1 4.9 9.2 7.5 3.2 2.6 6.4 5.3 9.8 8.1 3.3 2.8 6.7 5.7 10.2 8.7 3.4 3 7 6.1 10.5 9.2 14.2 12.6 29.1 26.3 43.6 40.4 7.3 7 14.5 14.2 21.5 21.2 7 7.1 13.9 14.1 20.4 21 3.3 3.4 6.5 6.8 9.6 10.2 3.1 3.4 6.2 6.6 9.1 9.9 5.9 6.5 11.3 12.7 16.3 18.4 5 5.8 9.5 11.1 13.4 15.9 3.9 4.8 7.3 9 10.1 12.6 2.8 3.5 4.9 6.3 6.3 8.3 1.4 1.9 2.2 3 2.2 3 .4.6.3 1.4-.3 1.8-.5.3-1 .3-1.5 0 0 0-1.1-.7-3.1-2-2-1.4-4.9-3.3-8.5-6-3.6-2.6-8-5.8-13-9.5s-10.5-8-16.5-12.8c-6-4.7-12.4-9.9-19.1-15.5-3.4-2.8-6.8-5.7-10.3-8.6-3.5-2.9-7-6-10.6-9.1-7.2-6.2-14.5-12.8-21.9-19.5-7.4-6.7-14.8-13.6-22.1-20.6-14.7-13.9-29-28.2-42.2-41.9-3.3-3.4-6.5-6.8-9.6-10.2-3.1-3.4-6.1-6.6-9.1-9.8-2.9-3.2-5.8-6.4-8.5-9.4-2.7-3.1-5.3-6.1-7.8-8.9-2.5-2.9-4.9-5.7-7.1-8.3-2.2-2.7-4.3-5.2-6.3-7.6-3.9-4.8-7.3-9-10.1-12.6-5.5-7.1-8.4-11.3-8.4-11.3-.6-.9-.4-2.1.5-2.7.7-.6 1.5-.6 2.2-.2zM235.8 536.1s4.4 2.8 11.6 8c3.7 2.6 8 5.8 13 9.5 2.5 1.9 5.1 3.9 7.9 6 2.7 2.1 5.6 4.4 8.6 6.8 3 2.4 6.1 4.9 9.2 7.5 3.2 2.6 6.4 5.3 9.8 8.1 3.3 2.8 6.7 5.7 10.2 8.7 3.4 3 7 6.1 10.5 9.2 14.2 12.6 29.1 26.3 43.6 40.4 7.3 7 14.5 14.2 21.5 21.2 7 7.1 13.9 14.1 20.4 21 3.3 3.4 6.5 6.8 9.6 10.2 3.1 3.4 6.2 6.6 9.1 9.9 5.9 6.5 11.3 12.7 16.3 18.4 5 5.8 9.5 11.1 13.4 15.9 3.9 4.8 7.3 9 10.1 12.6 2.8 3.5 4.9 6.3 6.3 8.3 1.4 1.9 2.2 3 2.2 3 .4.6.3 1.4-.3 1.8-.5.3-1 .3-1.5 0 0 0-1.1-.7-3.1-2-2-1.4-4.9-3.3-8.5-6-3.6-2.6-8-5.8-13-9.5s-10.5-8-16.5-12.8c-6-4.7-12.4-9.9-19.1-15.5-3.4-2.8-6.8-5.7-10.3-8.6-3.5-2.9-7-6-10.6-9.1-7.2-6.2-14.5-12.8-21.9-19.5-7.4-6.7-14.8-13.6-22.1-20.6-14.7-13.9-29-28.2-42.2-41.9-3.3-3.4-6.5-6.8-9.6-10.2-3.1-3.4-6.1-6.6-9.1-9.8-2.9-3.2-5.8-6.4-8.5-9.4-2.7-3.1-5.3-6.1-7.8-8.9-2.5-2.9-4.9-5.7-7.1-8.3-2.2-2.7-4.3-5.2-6.3-7.6-3.9-4.8-7.3-9-10.1-12.6-5.5-7.1-8.4-11.3-8.4-11.3-.6-.9-.4-2.1.5-2.7.7-.6 1.6-.6 2.2-.2z"/></g><ellipse transform="rotate(-31.548 556.41 527.198)" cx="556.5" cy="527.2" rx="196.9" ry="134.8" fill="#fff" stroke="#040000" stroke-width="8" stroke-miterlimit="10" id="穴"/><g id="note"><path d="M713.4 464.3c-33.7-58.4-131.1-65.2-217.6-15.3s-129.1 137.7-95.4 196c.3.5.6.9.8 1.4 46.1 47.7 141.7 47.3 225.8-4.3 39.6-24.3 70.2-56 89.3-89.4 12-31.4 12-62.7-2.9-88.4z"/><path d="M589.5 444l-5.4-417.4s131-34.9 174.7 126.2c6.7 24.6 41 71.3 79.9 9.7 0 0-16.8 188.6-185.5 78.3l-8.7 234.7-55-31.5z"/></g></svg>